<?xml version="1.0" standalone="no"?><!DOCTYPE svg PUBLIC "-//W3C//DTD SVG 1.1//EN" "http://www.w3.org/Graphics/SVG/1.1/DTD/svg11.dtd"><svg t="1755156018586" class="icon" viewBox="0 0 1024 1024" version="1.1" xmlns="http://www.w3.org/2000/svg" p-id="12182" xmlns:xlink="http://www.w3.org/1999/xlink" width="200" height="200"><path d="M972.8 435.2V268.8c0-12.8-6.4-25.6-19.2-25.6l-115.2-64c-12.8-6.4-25.6-6.4-32 0L652.8 256c-19.2 12.8-19.2 44.8 0 57.6l102.4 57.6c6.4 6.4 12.8 19.2 12.8 32V512c0 25.6 25.6 38.4 51.2 25.6l134.4-76.8c12.8 0 19.2-12.8 19.2-25.6z" fill="#5167FF" p-id="12183"></path><path d="M345.6 454.4v147.2c0 12.8 6.4 25.6 19.2 25.6L499.2 704c12.8 6.4 25.6 6.4 32 0l134.4-76.8c12.8-6.4 19.2-19.2 19.2-25.6V454.4c0-12.8-6.4-25.6-19.2-25.6L524.8 352c-12.8-6.4-25.6-6.4-32 0L358.4 428.8c-6.4 6.4-12.8 19.2-12.8 25.6zM819.2 864l134.4-76.8c12.8-6.4 19.2-19.2 19.2-25.6V620.8c0-25.6-25.6-38.4-51.2-25.6l-134.4 76.8c-12.8 6.4-19.2 19.2-19.2 25.6V832c0 32 32 44.8 51.2 32zM512 1024c19.2 0 38.4-6.4 57.6-19.2l89.6-51.2c12.8-6.4 19.2-19.2 19.2-25.6v-134.4c0-25.6-25.6-38.4-51.2-25.6l-102.4 57.6c-12.8 6.4-25.6 6.4-32 0L390.4 768c-19.2-12.8-51.2 0-51.2 25.6v134.4c0 12.8 6.4 25.6 19.2 25.6l96 51.2c19.2 12.8 38.4 19.2 57.6 19.2z" fill="#8099AA" p-id="12184"></path><path d="M569.6 12.8C531.2-6.4 486.4-6.4 448 12.8l-108.8 64c-19.2 12.8-19.2 44.8 6.4 57.6l153.6 89.6c12.8 6.4 25.6 6.4 32 0l153.6-89.6c19.2-12.8 19.2-44.8 0-57.6L569.6 12.8z" fill="#00B7F5" p-id="12185"></path><path d="M70.4 787.2l128 76.8c19.2 12.8 51.2 0 51.2-25.6V704c0-12.8-6.4-25.6-19.2-25.6l-128-76.8c-19.2-25.6-51.2-6.4-51.2 19.2v134.4c0 12.8 6.4 25.6 19.2 32zM268.8 377.6L371.2 320c19.2-12.8 19.2-44.8 0-57.6L217.6 172.8c-12.8-6.4-25.6-6.4-32 0l-115.2 64c-12.8 6.4-19.2 19.2-19.2 32v172.8c0 12.8 6.4 25.6 19.2 25.6l128 76.8c19.2 12.8 51.2 0 51.2-25.6V403.2c0-12.8 6.4-25.6 19.2-25.6z" fill="#8099AA" p-id="12186"></path></svg>